HIERARCHY
ROOT Hips
{
  OFFSET 0 0 0
  CHANNELS 6 Xposition Yposition Zposition Zrotation Yrotation Xrotation
  JOINT LeftThigh
  {
    OFFSET 8.409438 0 -5.917753
    CHANNELS 3 Zrotation Yrotation Xrotation
    JOINT LeftLeg
    {
      OFFSET 0 0 -42.358652
      CHANNELS 3 Zrotation Yrotation Xrotation
      JOINT LeftFoot
      {
        OFFSET 0 0 -39.357303
        CHANNELS 3 Zrotation Yrotation Xrotation
      }
    }
  }
  JOINT RightThigh
  {
    OFFSET -8.409438 0 -5.917753
    CHANNELS 3 Zrotation Yrotation Xrotation
    JOINT RightLeg
    {
      OFFSET 0 0 -42.358652
      CHANNELS 3 Zrotation Yrotation Xrotation
      JOINT RightFoot
      {
        OFFSET 0 0 -39.357303
        CHANNELS 3 Zrotation Yrotation Xrotation
      }
    }
  }
  JOINT SpineLow
  {
    OFFSET 0 0 4.719101
    CHANNELS 3 Zrotation Yrotation Xrotation
    JOINT SpineMid
    {
      OFFSET 0 0 12.899191
      CHANNELS 3 Zrotation Yrotation Xrotation
      JOINT Chest
      {
        OFFSET 0 0 12.899191
        CHANNELS 3 Zrotation Yrotation Xrotation
        JOINT LeftShoulder
        {
          OFFSET 7.550562 1.41573 9.438202
          CHANNELS 3 Zrotation Yrotation Xrotation
          JOINT LeftArm
          {
            OFFSET 9.155056 0 4.247191
            CHANNELS 3 Zrotation Yrotation Xrotation
            JOINT LeftForearm
            {
              OFFSET 0 0 25.771955
              CHANNELS 3 Zrotation Yrotation Xrotation
              JOINT LeftHand
              {
                OFFSET 0 0 25.197169
                CHANNELS 3 Zrotation Yrotation Xrotation
              }
            }
          }
        }
        JOINT RightShoulder
        {
          OFFSET -7.550562 1.41573 9.438202
          CHANNELS 3 Zrotation Yrotation Xrotation
          JOINT RightArm
          {
            OFFSET -9.155056 0 4.247191
            CHANNELS 3 Zrotation Yrotation Xrotation
            JOINT RightForearm
            {
              OFFSET 0 0 -25.771955
              CHANNELS 3 Zrotation Yrotation Xrotation
              JOINT RightHand
              {
                OFFSET 0 0 -25.197169
                CHANNELS 3 Zrotation Yrotation Xrotation
              }
            }
          }
        }
        JOINT Neck
        {
          OFFSET 0 0 15.101124
          CHANNELS 3 Zrotation Yrotation Xrotation
          JOINT Head
          {
            OFFSET 0 0 11.325843
            CHANNELS 3 Zrotation Yrotation Xrotation
            End Site
            {
              OFFSET 0 0 14.157303
            }
          }
        }
      }
    }
  }
}
MOTION
Frames: 17
Frame Time: 0.0
0.0  89.887642  0.0  12.967048  34.721759  -82.298698  17.028215  -40.200205  13.265755  8.678062  33.32886  33.447347  1.826831  4.027384  2.260992  -25.897037  12.682911  -54.081975  8.775922  5.693334  68.525815  1.850117  3.962476  0.668583  2.666058  -0.38202  1.470984  7.261799  -1.204305  3.973492  7.261799  -1.204305  3.973492  -26.065383  23.149817  8.030966  133.313676  54.894576  -151.108077  -29.851675  -18.233719  82.230501  58.129523  1.388779  22.860372  -5.192935  2.333864  13.491101  -3.460126  62.999814  -29.218212  -37.479841  -9.216957  -89.341419  42.229084  -44.646156  -62.860059  -46.238828  -1.897723  -10.06477  -34.718758  -0.663894  -7.745163  
0.0  89.887642  0.0  12.602362  33.745623  -82.773868  17.396378  -40.328312  13.43514  8.777475  33.32619  33.952636  1.952253  3.975643  2.278815  -24.77552  12.134703  -53.862002  9.298536  5.647266  68.731209  1.780502  3.907158  0.657309  2.658891  -0.346515  1.457783  7.244505  -1.10556  3.941436  7.244505  -1.10556  3.941436  -26.446668  22.670456  7.986464  135.020723  56.046489  -150.769051  -31.208294  -21.295559  85.474051  59.173558  1.296804  21.877868  -4.955469  2.422503  13.460904  -4.569543  63.377802  -30.765065  -37.195421  -8.103066  -90.166519  39.132562  -43.655595  -59.540702  -45.800496  -1.988306  -9.864093  -34.389977  -0.75477  -7.598032  
0.0  89.887642  0.0  12.143488  32.63346  -83.398718  17.919515  -40.631597  13.9616  8.550086  33.396572  33.929343  2.114939  3.867104  2.391855  -23.646118  11.517461  -53.517715  9.744941  5.739778  68.934578  1.857146  3.876928  0.631049  2.667844  -0.344521  1.473652  7.268792  -1.102387  3.984808  7.268792  -1.102387  3.984808  -26.786729  22.163827  7.550306  138.886256  57.867187  -148.879944  -31.982534  -22.97414  88.567587  60.174644  1.479251  20.398529  -4.854554  2.662609  13.112135  -6.357381  64.22589  -33.080559  -36.86185  -7.051978  -90.891387  35.018157  -42.436092  -55.782156  -45.352477  -2.041946  -9.771169  -34.054031  -0.809501  -7.529368  
0.0  89.887642  0.0  11.662247  31.394871  -84.071338  18.424289  -40.862651  14.744134  8.39008  33.177369  33.799252  2.18583  3.809808  2.435788  -22.59161  10.867436  -53.159974  10.077273  5.836527  69.095394  1.853179  3.877514  0.617353  2.698003  -0.337053  1.504862  7.351069  -1.087273  4.070269  7.351069  -1.087273  4.070269  -27.03507  21.427894  6.885363  145.192539  60.386728  -144.878183  -32.269467  -22.903191  91.253825  61.349263  1.958817  18.72923  -4.670838  2.928485  12.518502  -9.099181  65.287353  -36.326944  -36.388371  -6.154558  -91.558653  30.122555  -41.013418  -51.558194  -44.902493  -2.112817  -9.619339  -33.716478  -0.881492  -7.417443  
0.0  89.887642  0.0  11.228863  30.059288  -84.704872  18.809908  -41.006922  15.668453  8.460235  32.760763  33.738663  2.100479  3.792789  2.401679  -21.711091  10.175644  -52.774737  10.416877  5.930059  69.140796  1.624129  3.9154  0.589708  2.776716  -0.34216  1.52016  7.565565  -1.107757  4.110008  7.565566  -1.107757  4.110008  -27.443758  20.603345  6.036647  153.784165  62.929725  -138.619719  -32.215132  -21.575742  93.57078  62.891589  2.735882  16.982153  -4.77382  3.385966  11.878506  -12.75927  66.470205  -40.675445  -35.874646  -5.39561  -92.033901  24.973738  -39.300107  -47.051147  -44.607942  -2.086423  -9.418578  -33.494088  -0.880993  -7.26232  
0.0  89.887642  0.0  10.8364  28.807195  -85.304777  18.857195  -41.12975  16.713712  8.74285  32.329228  33.763218  2.102361  3.776548  2.370988  -21.051448  9.508453  -52.415988  10.740446  5.897371  69.154349  1.723043  3.880485  0.643316  2.844494  -0.296794  1.65058  7.751261  -1.003426  4.469956  7.751261  -1.003426  4.469956  -27.919222  19.088354  4.400178  163.76835  65.30657  -130.400245  -32.258723  -19.720606  95.252949  64.623954  3.878189  15.144866  -4.88764  3.530739  10.172917  -17.209187  67.767308  -45.894457  -35.5142  -4.590899  -92.299898  19.867976  -37.437895  -42.361535  -44.249859  -2.5102  -9.208313  -33.229  -1.22183  -7.132299  
0.0  89.887642  0.0  10.47686  27.4731  -86.021893  18.706102  -41.248831  18.04122  7.98307  32.397876  32.647339  3.071479  3.800349  2.783693  -20.258115  9.066436  -51.89701  10.845059  5.823494  69.138407  0.987826  3.73112  0.558902  2.871453  -0.261847  1.831516  7.824294  -0.931265  4.96739  7.824293  -0.931265  4.96739  -28.064464  17.593848  2.550977  175.499497  67.372055  -119.999196  -32.351429  -17.92455  96.47729  65.974698  5.55609  12.936276  -4.85229  3.775911  8.053639  -22.332204  69.00591  -52.112019  -35.179589  -3.587995  -92.364816  14.890991  -35.282786  -37.462995  -43.675712  -2.93839  -9.056797  -32.801748  -1.564577  -7.044932  
0.0  89.887642  0.0  10.189833  26.194687  -86.645616  18.489017  -41.231936  19.367349  8.208256  31.944774  32.419594  3.248457  3.764398  2.864427  -19.29916  8.858359  -51.263359  10.596131  5.650812  69.008285  1.147678  3.628112  0.642253  2.888922  -0.212282  1.986595  7.87338  -0.81581  5.396164  7.87338  -0.81581  5.396164  -28.01118  16.07399  0.848998  -171.124729  68.689256  -107.489396  -32.413719  -16.160611  97.215979  66.982555  7.786105  10.417024  -4.73744  3.903656  5.929543  -28.575118  70.05731  -59.515919  -34.902841  -2.480817  -92.228443  10.249825  -32.857814  -32.697227  -42.995088  -3.246726  -8.742129  -32.291949  -1.829551  -6.82451  
0.0  89.887642  0.0  9.940284  24.91364  -87.201576  18.296788  -41.141243  20.636888  8.344412  31.4791  32.094798  3.418424  3.712952  2.933633  -18.414229  8.734877  -50.644094  10.292258  5.161303  68.793808  1.242538  3.530841  0.745679  2.843418  -0.157987  2.086026  7.752169  -0.67568  5.674502  7.752168  -0.67568  5.674503  -27.620679  14.746223  -0.522018  -156.838656  68.956193  -93.744055  -32.525228  -14.601357  97.383217  67.877194  10.445368  8.128635  -5.101576  4.096807  3.501023  -33.166924  71.091474  -66.35242  -34.72581  -1.128499  -91.85206  5.935455  -30.065429  -28.230938  -42.032335  -3.33082  -8.331894  -31.567687  -1.934915  -6.513916  
0.0  89.887642  0.0  9.69411  23.68777  -87.712038  18.004051  -40.998969  21.918545  8.652899  30.926431  31.842887  3.595613  3.643741  3.0184  -17.775466  8.446379  -49.971586  10.193249  4.349639  68.433399  1.262394  3.490258  0.885238  2.813393  -0.107673  2.136313  7.673873  -0.541736  5.817915  7.673873  -0.541736  5.817915  -27.522632  13.511611  -1.664887  -143.774837  68.174199  -80.740031  -32.52405  -13.835834  96.846275  68.976165  13.199211  6.4308  -4.823675  4.225955  1.500446  -39.049791  71.86823  -73.889244  -34.771249  0.656238  -91.306457  1.694599  -26.897691  -24.000293  -41.123637  -3.245809  -7.872372  -30.882302  -1.914013  -6.155176  
0.0  89.887642  0.0  9.397445  22.46142  -88.250812  17.53578  -40.870662  23.33762  9.063421  30.323497  31.559327  3.69161  3.581979  3.084052  -17.329535  8.030297  -49.268829  10.3906  3.203494  68.055925  1.087832  3.431667  1.000178  2.81184  -0.060767  2.176449  7.673351  -0.418346  5.932874  7.673351  -0.418346  5.932874  -27.849141  12.262436  -2.796192  -131.891556  66.668679  -68.997221  -32.25197  -13.46344  95.770708  70.85038  15.900622  5.319329  -5.013501  4.347577  -0.553156  -44.584823  72.567301  -81.406473  -35.026929  2.821204  -90.607075  -2.483195  -23.376115  -19.820476  -40.314111  -3.153446  -7.440104  -30.271591  -1.883223  -5.817621  
0.0  89.887642  0.0  9.08709  21.273966  -88.701209  16.915058  -40.667018  24.742733  9.649857  29.634563  31.329447  3.763895  3.538104  3.219869  -16.975842  7.451243  -48.704308  10.694094  2.210711  67.816002  1.072091  3.362328  1.051763  2.747294  0.036584  2.202182  7.505633  -0.150028  6.014677  7.505633  -0.150028  6.014677  -28.073224  10.721969  -3.886845  -122.032518  64.951295  -59.246239  -31.783344  -14.279896  94.486244  73.066158  18.928135  4.839651  -4.473171  4.209561  -2.749275  -50.482294  73.268641  -88.979538  -35.403356  5.411989  -89.533232  -6.455813  -19.616677  -15.794223  -39.31758  -3.235771  -6.959538  -29.52164  -1.988203  -5.454069  
0.0  89.887642  0.0  8.747844  20.046077  -89.077038  16.215397  -40.292747  26.062354  10.290481  28.840578  31.139242  3.925295  3.457728  3.448934  -16.674936  6.568965  -48.111463  11.25796  1.333537  67.520246  1.304428  3.310372  1.174921  2.71158  0.086255  2.18898  7.412654  -0.009857  5.984376  7.412654  -0.009857  5.984377  -28.669778  9.377476  -5.165961  -113.924024  63.81908  -51.129828  -31.459721  -16.418248  93.135489  74.757578  22.451117  4.61099  -4.065879  4.18487  -4.7878  -57.552802  73.855847  -97.593431  -35.756484  8.37753  -88.111367  -9.976024  -15.835084  -12.038997  -38.453199  -3.181871  -6.610036  -28.870809  -1.979227  -5.181567  
0.0  89.887642  0.0  8.390707  18.870385  -89.318452  15.461144  -39.657603  27.144171  11.019131  27.790103  31.164652  4.10905  3.348873  3.689208  -16.475969  5.391191  -47.373842  12.075535  0.568347  66.928985  1.027262  3.380171  1.31827  2.757262  0.119763  2.139475  7.540513  0.083021  5.852951  7.540513  0.083021  5.852951  -29.448018  7.878701  -6.098684  -107.174456  63.028358  -43.588308  -30.935106  -19.669608  91.187744  75.911569  25.852919  4.306742  -4.586717  4.570604  -6.483714  -64.062119  73.711707  -105.753732  -35.907856  11.499453  -86.281336  -12.62208  -12.244328  -8.731803  -37.94697  -3.103237  -6.297741  -28.488742  -1.94476  -4.938139  
0.0  89.887642  0.0  7.918064  17.705158  -89.472364  14.729179  -38.81587  27.892739  11.646546  26.541318  31.210063  4.253411  3.261637  3.97525  -16.273985  3.980755  -46.527726  12.967656  0.279649  66.183888  0.839505  3.458446  1.485705  2.745713  0.18967  2.068226  7.515081  0.28277  5.666464  7.515081  0.28277  5.666464  -29.883222  6.381887  -6.758778  -100.013606  62.560646  -35.386601  -29.927542  -23.335408  88.357054  76.741114  28.495542  3.78701  -4.794791  4.652596  -8.211123  -70.269084  73.452863  -113.655859  -35.769501  14.680655  -83.918785  -14.03472  -9.040022  -6.126802  -37.214575  -3.165931  -5.914897  -27.937473  -2.022726  -4.648968  
0.0  89.887642  0.0  7.318878  16.59433  -89.571953  13.878738  -37.723422  28.360856  12.025594  25.169581  31.170593  4.436096  3.081004  4.378317  -15.889599  2.6204  -45.790008  13.707969  0.274574  65.5415  0.947243  3.419179  1.652803  2.789986  0.251643  2.030712  7.641203  0.4523  5.571347  7.641204  0.4523  5.571347  -31.264206  4.548485  -8.137424  -92.213266  62.716667  -27.215259  -28.546669  -26.771635  84.683373  77.471086  30.196374  3.413974  -5.268282  4.536342  -10.273096  -76.411892  73.205219  -121.361725  -35.211394  17.645874  -80.968482  -14.256289  -6.386101  -4.529592  -36.681465  -3.392359  -5.656724  -27.537138  -2.213847  -4.464721  
0.0  89.887642  0.0  6.581779  15.546762  -89.621508  12.875442  -36.366805  28.586654  12.133013  23.599718  31.130326  4.798232  2.848368  4.792867  -15.030166  1.342237  -44.996147  14.089201  0.405245  64.879244  1.018655  3.424126  1.745234  2.862425  0.258108  1.971602  7.839337  0.470823  5.411109  7.839337  0.470823  5.411109  -32.928488  2.900908  -9.232919  -83.88913  62.675939  -18.883263  -26.960542  -29.740783  80.434252  78.10771  30.925806  3.632554  -6.086069  4.623296  -11.932995  -81.579877  72.614958  -128.267581  -34.127677  20.219742  -77.442155  -13.361004  -4.090619  -4.482916  -36.272217  -3.51766  -5.494349  -27.229725  -2.321536  -4.347149  
